# xmcd
#
# Track frame offsets:
#	150
#	20026
#	36203
#	52940
#	70794
#	89216
#	104659
#	119309
#	137375
#	151629
#	169188
#	184773
#	202841
#	218630
#
# Disc length: 3119 seconds
#
# Revision: 1
# Processed by: cddbd v1.5.2PL0 Copyright (c) Steve Scherf et al.
# Submitted via: audiograbber 1.83.01
#
DISCID=bc0c2d0e
DTITLE=Star Disc Vol. 160 - Sd160
DYEAR=2007
DGENRE=Karaoke
TTITLE0=Kenny Chesney - Don't Blink
TTITLE1=Taylor Swift - Our Song
TTITLE2=Garth Brooks - More Than A Memory
TTITLE3=George Strait - How 'Bout Them Cowgirls
TTITLE4=Keith Urban - Everybody
TTITLE5=Trace Adkins - I Got My Game On
TTITLE6=Kellie Pickler - Things That Never Cross A Mans Mind
TTITLE7=Little Big Town - I'm With The Band
TTITLE8=Bucky Covington - It's Good To Be Us
TTITLE9=Eric Church - Sinners Like Me
TTITLE10=Van Zant - If It Goes Down Easy
TTITLE11=Trent Willmon - There Is A God
TTITLE12=Brent Keith - Looking For A Road (Theme From Dale)
TTITLE13=Eagles - How Long
EXTD=
EXTT0=
EXTT1=
EXTT2=
EXTT3=
EXTT4=
EXTT5=
EXTT6=
EXTT7=
EXTT8=
EXTT9=
EXTT10=
EXTT11=
EXTT12=
EXTT13=
PLAYORDER=
